<svg width="54" height="54" viewBox="0 0 54 54" fill="none" xmlns="http://www.w3.org/2000/svg">
<circle cx="27" cy="27" r="27" fill="#60AF2F"/>
<path fill-rule="evenodd" clip-rule="evenodd" d="M18.9853 5.13598C18.4286 5.41841 18.1914 6.0707 18.4382 6.64056C18.4979 6.77847 19.2505 7.83794 20.1106 8.99495C20.9708 10.152 21.6662 11.1489 21.6561 11.2103C21.6453 11.2752 21.2627 11.4621 20.7425 11.6562C19.8244 11.9991 17.9733 12.892 17.633 13.1562L17.4424 13.3043L17.7252 13.6496C18.8517 15.0257 21.1285 16.5413 23.0214 17.1754C25.3033 17.9397 28.3471 17.9692 30.6297 17.2491C31.8986 16.8489 33.4145 16.0288 34.4812 15.1656C35.0777 14.6829 36.3104 13.4516 36.3104 13.3385C36.3104 13.1166 34.4682 12.1558 33.064 11.6453C32.627 11.4865 32.2322 11.3116 32.1867 11.2566C32.1244 11.1814 32.3309 10.8508 33.0215 9.92002C35.1236 7.08732 35.3665 6.7385 35.4407 6.44601C35.5953 5.83642 35.2431 5.24459 34.6135 5.0558C34.3371 4.9729 34.2406 4.97882 33.9301 5.09749C33.5914 5.22698 33.4686 5.37018 31.998 7.34911C31.1343 8.51142 30.2586 9.69532 30.0521 9.97994C29.8455 10.2646 29.5932 10.542 29.4915 10.5965C29.3443 10.6753 29.059 10.678 28.0992 10.6094C27.2191 10.5466 26.5663 10.5465 25.6905 10.609C24.2741 10.7101 24.2881 10.715 23.7167 9.91612C22.3805 8.04791 20.3387 5.37213 20.1427 5.23243C19.7872 4.97898 19.3642 4.94376 18.9853 5.13598ZM14.0021 16.0656C11.4213 18.7235 9.83211 21.8787 9.18176 25.6358C9.00966 26.63 8.93859 29.5827 9.06244 30.5935C9.64327 35.3336 12.1364 39.7556 15.853 42.6376C16.2676 42.9591 16.9331 43.4243 17.332 43.6714C18.377 44.3191 19.8584 45.0493 20.0217 44.9974C20.3531 44.8918 22.2788 42.2537 23.0238 40.8846C24.1955 38.7313 24.9946 36.0922 25.3662 33.1481C25.8636 29.2075 25.6256 26.5344 24.4298 22.6298C23.9157 20.9513 23.9086 20.9425 22.8443 20.6805C21.966 20.4642 21.2023 20.1768 20.1588 19.6696C18.4247 18.8269 17.1208 17.8751 15.6246 16.36C15.158 15.8874 14.7254 15.5007 14.6633 15.5007C14.6013 15.5007 14.3037 15.7549 14.0021 16.0656ZM38.3357 16.2168C36.283 18.412 33.5389 20.0567 30.8227 20.7202C30.4374 20.8142 30.0644 20.9493 29.9936 21.0204C29.709 21.3061 28.7725 24.5703 28.4365 26.4476C28.2745 27.3525 28.2555 27.6931 28.2576 29.642C28.2601 31.9168 28.355 33.045 28.6937 34.8233C29.3552 38.2961 30.9306 41.6864 33.0565 44.2119C33.5921 44.8481 33.7471 44.9873 33.9022 44.9707C34.0066 44.9595 34.4229 44.7911 34.8275 44.5964C37.6002 43.2622 40.1256 41.0423 41.8786 38.3983C45.8395 32.424 45.835 24.4795 41.8673 18.599C40.9071 17.1758 39.4314 15.4964 39.1494 15.5059C39.0604 15.5088 38.7183 15.8078 38.3357 16.2168Z" fill="#F5F6F7"/>
</svg>
