<svg width="54" height="54" viewBox="0 0 54 54" fill="none" xmlns="http://www.w3.org/2000/svg">
<circle cx="27" cy="27" r="27" fill="#1C313C"/>
<path fill-rule="evenodd" clip-rule="evenodd" d="M24.5947 9.11302C19.4279 9.97063 14.8694 12.8728 12.067 17.0885C10.108 20.0356 9.20256 22.7478 9.02379 26.2035C8.75324 31.4367 10.7962 36.3395 14.8353 40.15C18.4658 43.5748 23.0121 45.2399 28.0017 44.9721C35.6975 44.5586 42.2882 39.1882 44.4397 31.5775C44.9681 29.7076 45.1603 26.3714 44.8531 24.4005C44.2573 20.5805 42.6243 17.3878 39.826 14.5716C36.8856 11.6125 34.2287 10.1203 30.549 9.36123C28.8501 9.01066 25.9409 8.88946 24.5947 9.11302ZM23.2253 12.7532C23.262 12.8478 23.8568 13.3929 24.5468 13.9644C26.2291 15.3575 27.5977 17.113 28.7004 19.2921C30.0353 21.9309 30.4556 23.7396 30.4688 26.9046C30.4808 29.7463 30.1149 31.6102 29.0902 33.9302C27.9598 36.4888 25.5874 39.3687 23.3744 40.8686C22.8387 41.2316 22.3982 41.6072 22.3954 41.7033C22.3926 41.7995 23.7628 41.832 25.4465 41.7755C29.0631 41.6543 30.2912 41.3486 33.4128 39.7922C35.2456 38.8783 35.7641 38.4963 37.4311 36.8303C39.0037 35.259 39.4941 34.6141 40.1803 33.215C41.3463 30.8379 41.6912 29.2064 41.578 26.6041C41.4225 23.0333 40.1565 20.2774 37.4287 17.5713C35.0199 15.182 32.1799 13.6813 28.7032 12.9603C26.87 12.5803 23.1029 12.4379 23.2253 12.7532Z" fill="#F5F6F7"/>
</svg>
