<svg width="54" height="54" viewBox="0 0 54 54" fill="none" xmlns="http://www.w3.org/2000/svg">
<circle cx="27" cy="27" r="27" fill="#3B59C3"/>
<path fill-rule="evenodd" clip-rule="evenodd" d="M28.0733 5.28251C27.7963 6.0738 27.0717 7.40535 26.4115 8.33628C24.4535 11.097 21.4661 13.5041 17.8538 15.2314C17.4333 15.4324 16.9139 15.7158 16.6997 15.8611C14.0471 17.6594 10.9053 22.7356 9.78529 27.0324C9.67004 27.4747 9.58742 27.8482 9.6017 27.8626C9.64626 27.9072 13.2348 27.2739 15.6928 26.7875C20.9132 25.7546 24.2117 24.8558 25.8119 24.0301C26.2519 23.803 26.4368 23.6658 26.8372 23.2688C27.7025 22.4109 28.111 21.4734 28.2595 20.0042C28.3194 19.4108 28.2771 18.4852 28.1656 17.955C28.1199 17.7373 28.2337 17.7631 28.701 18.0765C29.1643 18.3871 29.8104 19.0547 30.0718 19.493C30.5045 20.2184 30.6734 20.8371 30.7094 21.8285L30.7373 22.5945L31.154 22.8355C32.5928 23.6674 33.868 25.0676 34.5403 26.5538C35.3258 28.2904 35.5 30.3891 35.014 32.2618C34.5756 33.9512 33.5079 35.5595 32.0927 36.6621C31.5578 37.0788 31.2575 37.2674 30.6433 37.5725C28.9106 38.433 26.7752 38.6442 24.8456 38.1459C24.5208 38.0621 24.1645 37.9551 24.0538 37.9083C23.9431 37.8615 23.8525 37.8463 23.8525 37.8745C23.8525 37.9692 24.1329 38.7082 24.3379 39.1538C25.1466 40.9114 26.5176 42.4998 28.1739 43.5981C28.8295 44.0328 29.8841 44.5485 30.6231 44.7957L31.2338 45L31.8243 44.8497C34.1026 44.2696 36.2768 43.183 38.1319 41.6971C38.8353 41.1339 40.0715 39.8991 40.6084 39.2237C43.4501 35.6489 44.7175 31.2484 44.1706 26.8548C43.3158 19.9868 38.2795 14.367 31.5514 12.7734C30.704 12.5726 29.7522 12.4371 28.7107 12.3689C28.2088 12.3359 27.7871 12.2981 27.7737 12.2847C27.7477 12.2588 27.7489 12.2554 28.0957 11.4313C28.8384 9.66643 28.9321 7.55892 28.3622 5.44394C28.2965 5.1998 28.2268 5 28.2074 5C28.1881 5 28.1277 5.12716 28.0733 5.28251ZM19.8084 18.0513C17.7574 18.7686 16.2789 20.5448 15.6895 22.9997C15.598 23.381 15.5537 23.78 15.6029 23.78C15.6965 23.78 16.8481 23.4235 17.1763 23.293C18.1823 22.8928 19.135 22.2891 19.6159 21.747C20.337 20.9341 20.6643 19.9329 20.5317 18.9454C20.469 18.4786 20.3122 17.9557 20.2289 17.9359C20.1994 17.9288 20.0101 17.9808 19.8084 18.0513ZM17.3577 31.0267C14.3023 31.7804 11.792 32.4075 11.7793 32.4203C11.7377 32.462 12.0931 33.7286 12.3421 34.4254C12.6393 35.2571 13.4144 36.8476 13.8882 37.5979C15.8315 40.6751 18.7259 43.0421 22.0809 44.2979C22.6038 44.4936 23.682 44.8308 24.0086 44.9008C24.1866 44.9389 24.1815 44.9306 23.8253 44.5975C22.2213 43.0979 21.1273 41.1266 20.6491 38.874C20.5086 38.2122 20.5006 38.0988 20.5004 36.7753C20.5003 35.4608 20.5089 35.3367 20.6428 34.7214C21.0175 33.0011 21.7889 31.3333 22.8848 29.8741C22.9853 29.7403 23.0268 29.6476 22.9848 29.6508C22.9453 29.6538 20.4131 30.2729 17.3577 31.0267Z" fill="#F5F6F7"/>
</svg>
