<svg width="54" height="54" viewBox="0 0 54 54" fill="none" xmlns="http://www.w3.org/2000/svg">
<circle cx="27" cy="27" r="27" fill="#FFC809"/>
<path fill-rule="evenodd" clip-rule="evenodd" d="M17.5096 9.03016C17.5096 9.04674 18.4354 11.8258 19.567 15.2058C20.6985 18.5858 21.6244 21.3697 21.6245 21.3923C21.6247 21.4249 20.4092 21.435 15.7127 21.4416L9.80078 21.4499L21.4328 35.2346C27.8304 42.8162 33.0686 49.0106 33.0731 49C33.0777 48.9894 32.0615 44.9621 30.815 40.0505L28.5485 31.1204L34.3045 31.1121C37.4703 31.1076 40.0605 31.0935 40.0605 31.0809C40.0605 31.0683 38.5256 26.3207 36.6496 20.5306C34.7736 14.7406 33.1656 9.77749 33.0763 9.50162L32.914 9H25.2118C20.5635 9 17.5096 9.01197 17.5096 9.03016Z" fill="#1B1C1C"/>
</svg>
