<svg width="54" height="54" viewBox="0 0 54 54" fill="none" xmlns="http://www.w3.org/2000/svg">
<circle cx="27" cy="27" r="27" fill="#E8779F"/>
<path fill-rule="evenodd" clip-rule="evenodd" d="M26.3051 8.33535C25.9034 9.06977 24.6912 11.2873 23.6116 13.2631C22.5319 15.2389 21.6151 16.8608 21.5741 16.8673C21.5331 16.8738 20.0486 16.4548 18.2751 15.9361C16.5015 15.4174 15.0454 14.9961 15.0392 14.9999C15.0331 15.0037 15.4558 16.4529 15.9786 18.2204C16.5014 19.9878 16.9285 21.4773 16.9278 21.5302C16.9269 21.5989 16.2144 22.0157 14.4463 22.9819C13.0822 23.7273 10.8487 24.9489 9.483 25.6965L7 27.0558L9.17456 28.2444C15.5489 31.7285 16.8728 32.4632 16.8708 32.5151C16.8695 32.5465 16.4561 33.9613 15.952 35.6593C15.448 37.3572 15.0429 38.7547 15.0519 38.7647C15.0609 38.7748 16.4684 38.3769 18.1798 37.8807C19.8911 37.3844 21.3383 36.9783 21.396 36.9783C21.477 36.9783 22.1146 38.1023 24.2138 41.9457C25.706 44.6778 26.9549 46.9508 26.9892 46.9969C27.0391 47.0638 27.6022 46.0727 29.8033 42.0435C31.9038 38.1984 32.5815 37.0025 32.6671 36.9898C32.7289 36.9807 34.1758 37.3788 35.8827 37.8745C37.5895 38.3701 38.9956 38.7663 39.0071 38.7546C39.0187 38.743 38.6237 37.3662 38.1292 35.6951C37.6347 34.0239 37.2301 32.6085 37.2301 32.5499C37.2301 32.4665 38.2958 31.8599 42.1352 29.7581C44.8329 28.2813 47.022 27.0547 46.9998 27.0325C46.9776 27.0103 44.764 25.7899 42.0808 24.3205C39.3975 22.8512 37.1804 21.6272 37.1538 21.6007C37.1269 21.5737 37.5288 20.1208 38.0641 18.3096C38.5914 16.526 39.0112 15.0552 38.9972 15.041C38.983 15.0269 37.5235 15.4357 35.7536 15.9494C33.9838 16.4632 32.5122 16.8835 32.4833 16.8835C32.4545 16.8835 32.3387 16.713 32.2262 16.5046C32.1135 16.2963 30.8996 14.0724 29.5285 11.5629L27.0357 7L26.3051 8.33535ZM25.7898 22.2792L24.528 24.5847L22.2442 25.8279C20.9882 26.5118 19.9598 27.0853 19.959 27.1026C19.9581 27.1199 20.9907 27.6995 22.2536 28.3906L24.5496 29.6473L25.7999 31.9376C26.4875 33.1972 27.0669 34.2279 27.0874 34.2279C27.1078 34.2279 27.6873 33.1978 28.3752 31.9386L29.6258 29.6493L31.9138 28.3972C33.1722 27.7084 34.2018 27.1281 34.2018 27.1075C34.2018 27.0869 33.1722 26.5066 31.9138 25.8179L29.6259 24.5658L28.3708 22.2682C27.6805 21.0046 27.1013 19.9714 27.0837 19.9723C27.066 19.9731 26.4838 21.0113 25.7898 22.2792Z" fill="#F5F6F7"/>
</svg>
