<svg width="54" height="54" viewBox="0 0 54 54" fill="none" xmlns="http://www.w3.org/2000/svg">
<circle cx="27" cy="27" r="27" fill="#CD492C"/>
<path fill-rule="evenodd" clip-rule="evenodd" d="M18.7605 9.02596C17.6246 9.23163 16.7707 10.0127 16.3716 11.2111C16.0638 12.1352 16.0863 11.5086 16.0574 19.9806C16.0372 25.8915 16.0172 27.728 15.9723 27.8064C15.8701 27.9846 15.6877 28.0683 15.402 28.0683C15.1744 28.0683 15.1099 28.0469 14.9753 27.9266L14.8166 27.7849L14.7923 23.9137L14.7681 20.0424L14.4523 20.2778C14.0424 20.5834 13.2059 21.3926 12.8458 21.8319C11.5102 23.4611 10.7439 25.519 10.6193 27.8108C10.4842 30.2952 11.0662 32.9669 12.2646 35.3641C14.7065 40.249 19.2814 43.6323 24.8304 44.6571C29.324 45.4871 33.6027 44.7986 36.8838 42.7178C39.7658 40.8901 42.095 37.7742 43.0355 34.4881C43.3758 33.2992 43.3593 33.7898 43.3438 25.3238L43.3298 17.6976L43.2213 17.309C43.0414 16.6648 42.6793 15.9917 42.2859 15.5704C41.8602 15.1146 41.51 14.8794 40.9764 14.6907C40.6063 14.5599 40.5008 14.5441 40.0027 14.5444C39.041 14.5451 38.3303 14.8159 37.7598 15.3989L37.4356 15.7303H37.1513C36.6846 15.7303 36.5408 15.5633 36.4868 14.9587C36.4404 14.4369 36.3753 14.2064 36.1288 13.6903C35.9348 13.2838 35.8502 13.1708 35.4176 12.7405C35.0145 12.3395 34.8485 12.212 34.4895 12.0283C33.904 11.7288 33.5576 11.6324 33.0808 11.6365C32.4073 11.6424 31.6605 11.9817 30.9921 12.5857C30.8318 12.7305 30.6529 12.8743 30.5945 12.9053C30.3468 13.0366 29.9021 12.9111 29.7809 12.6756C29.745 12.6058 29.6905 12.386 29.6598 12.1874C29.5619 11.5535 29.1828 10.9348 28.5899 10.4413C26.9643 9.08853 25.1057 9.2257 23.6356 10.8069C23.255 11.2163 23.1861 11.2575 22.8788 11.2597C22.5761 11.2618 22.4688 11.1899 22.242 10.8332C21.7036 9.98648 20.8414 9.32047 20.0019 9.10291C19.6285 9.00614 19.0634 8.97112 18.7605 9.02596Z" fill="#F5F6F7"/>
</svg>
