<svg width="54" height="54" viewBox="0 0 54 54" fill="none" xmlns="http://www.w3.org/2000/svg">
<circle cx="27" cy="27" r="27" fill="#EF4036"/>
<path fill-rule="evenodd" clip-rule="evenodd" d="M26.0685 7.16116C26.0905 7.24984 26.1783 7.80582 26.2637 8.39676C26.3891 9.26489 26.4112 9.66372 26.3789 10.474C26.3356 11.5575 26.2382 12.0575 25.898 12.9426C25.4232 14.1778 24.3524 15.4223 22.6524 16.7151C19.037 19.4642 17.1733 22.3576 16.5141 26.2451C16.2653 27.712 16.2386 30.1993 16.448 32.4102C16.5005 32.9645 16.4379 33.0667 16.2291 32.7684C16.0369 32.4938 15.4043 30.7893 15.152 29.8661C14.6735 28.1155 14.4432 26.375 14.3616 23.8942C14.3347 23.0724 14.288 22.4001 14.258 22.4001C14.1851 22.4001 13.414 24.378 13.0876 25.4019C11.3134 30.9677 11.7245 36.3512 14.2138 40.1515C16.3536 43.4183 19.2342 45.4864 23.0105 46.4668C24.5181 46.8582 25.7016 47.0031 27.3649 47C29.0751 46.9967 29.8796 46.8874 31.7865 46.3993C34.1885 45.7845 35.7743 44.9274 37.3487 43.393C38.1652 42.5973 39.2528 41.2417 39.2528 41.0197C39.2528 40.987 38.9432 41.1044 38.5648 41.2806C36.8073 42.0989 35.129 42.6712 33.5052 43.0057C32.2297 43.2685 29.9945 43.3196 28.7929 43.1135C27.3182 42.8606 26.1831 42.4325 25.0958 41.7191C23.4148 40.6161 22.1884 39.0816 21.6776 37.4421C21.5342 36.9818 21.5103 36.7561 21.5107 35.8663C21.5112 34.9972 21.5381 34.7342 21.6756 34.2547C22.2295 32.3228 23.5552 30.8946 25.3828 30.2607C26.1701 29.9875 27.3477 29.9142 28.1599 30.0877C29.9904 30.4787 31.4563 31.6295 32.1892 33.2511C32.692 34.3638 32.8797 35.8849 32.6533 37.0138C32.4157 38.1986 31.6325 39.4948 30.6266 40.368C30.3839 40.5787 30.2009 40.7764 30.22 40.8073C30.2789 40.9029 31.0367 40.9707 31.9557 40.9625C35.3347 40.9324 37.8868 39.4804 39.8429 36.4751C41.9168 33.289 42.4676 29.9235 41.5074 26.3044C41.108 24.799 40.4147 23.269 39.6321 22.166C39.1124 21.4337 37.8284 20.1236 37.0708 19.553C36.2722 18.9514 35.3439 18.3693 35.263 18.4195C35.2243 18.4434 35.3124 18.8062 35.4687 19.2668C36.3429 21.8435 36.0924 23.7278 34.6898 25.1245C33.8233 25.9872 32.9929 26.3397 31.8273 26.3397C30.6618 26.3397 29.8314 25.9872 28.9649 25.1245C27.6469 23.8121 27.3338 21.9767 28.1401 20.2892C28.6295 19.2651 29.46 18.5146 30.5262 18.1332C30.8295 18.0248 31.109 17.9082 31.1473 17.8741C31.2659 17.7688 31.3228 16.6033 31.2516 15.7387C31.0703 13.5366 30.1965 11.5228 28.5166 9.43537C27.9309 8.70755 26.2582 7 26.1311 7C26.0605 7 26.041 7.05028 26.0685 7.16116Z" fill="#F5F6F7"/>
</svg>
