<svg width="54" height="54" viewBox="0 0 54 54" fill="none" xmlns="http://www.w3.org/2000/svg">
<circle cx="27" cy="27" r="27" fill="#185FD8"/>
<path fill-rule="evenodd" clip-rule="evenodd" d="M46.1972 9.94963C43.6466 13.7631 41.3963 15.327 36.7374 16.524C34.3382 17.1404 32.4605 17.4488 29.6055 17.6952C28.5692 17.7847 27.0648 17.8218 23.7767 17.8389C19.0955 17.8633 18.7006 17.8881 17.3039 18.2451C13.4965 19.2187 10.1778 21.8713 8.43073 25.3373C7.5059 27.1721 7.00878 29.2704 7.00014 31.3761C6.99068 33.683 7.45779 35.6988 8.46901 37.7153C10.7561 42.2758 15.4814 45.1765 20.6239 45.1765C25.2092 45.1765 29.3554 42.9847 31.953 39.1877C32.4409 38.4744 33.162 37.1382 33.162 36.9472C33.162 36.8737 32.9793 36.7824 32.622 36.6772C31.7693 36.4261 31.563 36.3389 31.54 36.2191C31.5219 36.1253 31.7498 36.0929 32.9547 36.0179C34.9646 35.8928 36.0678 35.6325 37.3705 34.9758C38.7295 34.2907 39.9435 33.07 40.6427 31.6856C40.8596 31.2561 40.8274 31.255 40.3127 31.6749C39.0013 32.7445 37.5849 33.3801 35.9898 33.6144C34.9814 33.7626 32.8875 33.6747 31.8213 33.4394C30.3836 33.1221 29.7785 32.9248 29.7475 32.7632C29.7214 32.6266 29.7705 32.6227 31.0293 32.6636C33.2075 32.734 34.5229 32.5396 36.067 31.919C37.9591 31.1586 39.8163 29.7266 41.0379 28.0865C41.3567 27.6584 41.9514 26.6367 41.9514 26.5172C41.9514 26.4779 41.7234 26.6423 41.4449 26.8824C40.5155 27.6835 39.5282 28.1713 37.8735 28.6473C36.3338 29.0903 35.2062 29.2416 33.4227 29.2444C31.7642 29.2471 31.1995 29.1796 29.7309 28.8032C28.431 28.4701 26.6817 27.8087 26.6817 27.6504C26.6817 27.5441 26.8746 27.5508 27.8765 27.6918C28.561 27.788 29.1358 27.8041 30.7785 27.7729C33.0436 27.7299 33.8821 27.6315 35.1193 27.2638C38.6271 26.2212 41.4043 24.1558 43.393 21.1108C45.1821 18.3714 46.4459 14.8121 46.8211 11.4557C47.0169 9.70353 47.0489 8.99666 46.9323 9.00001C46.8762 9.00165 46.5454 9.42894 46.1972 9.94963Z" fill="#F5F6F7"/>
</svg>
