<svg width="54" height="54" viewBox="0 0 54 54" fill="none" xmlns="http://www.w3.org/2000/svg">
<circle cx="27" cy="27" r="27" fill="#48469C"/>
<path fill-rule="evenodd" clip-rule="evenodd" d="M24.2985 9.04837C24.1643 9.06809 23.7252 9.13106 23.3227 9.18826C20.3016 9.61789 17.5156 10.7707 15.2239 12.5394C14.3742 13.1951 12.8928 14.6366 12.2041 15.4778C9.41376 18.8856 8.19961 22.2154 8.19922 26.4602C8.19902 29.4416 8.67949 31.5674 9.96097 34.2547C12.1245 38.7917 16.4839 42.3237 21.7737 43.8256C24.9341 44.7228 26.8428 44.9739 30.6898 44.9983C33.7691 45.0179 35.5582 44.8709 37.325 44.4533C38.8371 44.0959 41.3744 43.1753 41.3744 42.9841C41.3744 42.9409 41.1 42.7554 40.7646 42.572C39.9537 42.1285 39.0054 41.212 38.7584 40.6329C38.599 40.2593 38.5783 40.0836 38.6447 39.6699C38.7491 39.02 38.7871 38.9542 39.7441 37.761C41.5605 35.4962 42.7743 33.1426 43.3569 30.7555C44.3288 26.7738 43.7321 22.1772 41.7524 18.3948C39.1195 13.3641 34.1086 9.91261 28.2991 9.12813C27.3818 9.00425 24.9316 8.95544 24.2985 9.04837ZM17.1611 21.1597C16.663 21.5481 16.2126 22.1745 15.9295 22.8724C15.6026 23.6786 15.5892 24.8758 15.8983 25.6792C16.3148 26.7617 17.1544 27.6037 18.2487 28.0361C18.9994 28.3328 20.3231 28.3338 21.0785 28.0382C22.4646 27.4958 23.6155 25.9901 23.6155 24.7188C23.6155 24.3684 23.5314 24.3455 22.9691 24.5429C20.7275 25.3299 18.3073 23.9304 17.83 21.5711C17.7619 21.2344 17.6608 20.9438 17.6054 20.9252C17.5501 20.9068 17.3501 21.0123 17.1611 21.1597ZM34.1987 21.1642C34.1678 21.3118 34.0977 21.6304 34.0432 21.872C33.7246 23.2807 32.4551 24.4208 30.8806 24.7121C30.2466 24.8293 29.6512 24.7738 28.9576 24.5326C28.3423 24.3186 28.2422 24.4148 28.3851 25.0819C28.8531 27.265 31.085 28.7127 33.1621 28.1802C34.7227 27.7803 35.7614 26.7683 36.1639 25.2559C36.5324 23.8715 36.1039 22.4285 35.0072 21.3597C34.4621 20.8286 34.2785 20.7842 34.1987 21.1642Z" fill="#F5F6F7"/>
</svg>
