<svg width="54" height="54" viewBox="0 0 54 54" fill="none" xmlns="http://www.w3.org/2000/svg">
<circle cx="27" cy="27" r="27" fill="#2FAF4A"/>
<path fill-rule="evenodd" clip-rule="evenodd" d="M36.4016 9.06989C34.8832 9.19348 32.91 9.43734 31.5854 9.66526C30.7219 9.81379 29.1708 10.1113 28.8232 10.1951C28.6674 10.2327 28.1096 10.3592 27.5838 10.4764C21.119 11.9161 15.5483 14.6451 12.8839 17.6774C11.0929 19.7159 9.80298 22.2969 9.27766 24.8936C9.04676 26.0347 8.99889 26.5785 9.00002 28.0454C9.00144 29.8364 9.10272 30.6681 9.52711 32.3742C9.80184 33.4786 10.0181 34.0693 10.5482 35.1636C11.2362 36.5839 12.6954 38.6675 13.003 38.6689C13.0666 38.6693 13.2394 38.534 13.3869 38.3685C13.5344 38.203 14.2033 37.4938 14.8733 36.7926C16.2283 35.3746 16.6817 34.8802 16.7745 34.7196C16.8113 34.6559 16.803 34.2592 16.7544 33.7542C16.709 33.2828 16.6408 32.5624 16.6026 32.1534C16.5157 31.2196 16.423 30.2376 16.2851 28.7891C16.1585 27.4592 16.0742 26.5597 15.9665 25.3894C15.9234 24.9219 15.859 24.2845 15.8232 23.9728C15.7874 23.6612 15.7375 23.1028 15.7123 22.7321C15.6672 22.0714 15.6702 22.0535 15.859 21.8291C16.1199 21.519 16.3977 21.5196 16.709 21.8309C16.9578 22.0797 16.9872 22.164 17.4451 23.9374C17.7866 25.2598 18.3322 27.3468 18.5652 28.2225C18.6585 28.5731 18.8629 29.3539 19.0193 29.9577C19.498 31.8054 19.4995 31.8096 19.6526 31.7277C19.7257 31.6885 19.8271 31.5975 19.8778 31.5253C19.9607 31.4074 21.1799 30.1118 23.0529 28.1516C23.4251 27.7621 23.9673 27.1944 24.2578 26.8901C24.9252 26.1912 25.0651 25.9318 25.0075 25.5004C24.9316 24.9326 24.8286 24.2172 24.645 22.9812C24.5466 22.319 24.4341 21.5381 24.395 21.246C24.356 20.9538 24.231 20.0816 24.1173 19.3076C23.9031 17.8495 23.9071 17.6882 24.1646 17.4037C24.2896 17.2656 24.6162 17.2406 24.8263 17.353C25.0283 17.4612 25.2122 17.8655 26.1614 20.2898C27.2741 23.1316 27.3762 23.3708 27.4762 23.3708C27.5634 23.3708 27.7765 23.1543 29.7077 21.1043C30.3499 20.4226 31.1478 19.578 31.4808 19.2274C31.8138 18.8768 32.3401 18.3194 32.6504 17.9889C34.5839 15.9287 34.8943 15.6506 35.2598 15.6506C35.4891 15.6506 35.7288 15.9577 35.7288 16.2516C35.7288 16.5583 35.6373 16.7193 33.8169 19.6169C32.9481 20.9998 32.0803 22.3863 31.8884 22.6979C31.6966 23.0096 31.2232 23.7696 30.8366 24.3869C30.45 25.0043 30.1492 25.5344 30.1681 25.565C30.187 25.5957 30.3861 25.6415 30.6107 25.6669C30.8352 25.6924 31.2419 25.7425 31.5146 25.7784C31.7873 25.8143 32.2972 25.8772 32.6478 25.918C35.0347 26.1957 36.2882 26.3702 36.4834 26.4518C36.7567 26.566 36.8779 26.7721 36.8485 27.0725C36.8109 27.4575 36.544 27.5709 35.3343 27.7155C34.7527 27.785 34.0378 27.8705 33.7456 27.9053C33.4535 27.9401 32.9117 28.0018 32.5416 28.0424C32.1715 28.0829 31.4703 28.1623 30.9834 28.2189C30.4965 28.2754 29.7388 28.3608 29.2996 28.4085C28.8097 28.4617 28.4247 28.5417 28.3032 28.6156C28.1944 28.6818 27.9503 28.987 27.7609 29.2937C26.8894 30.7052 25.3752 33.1408 24.7409 34.1514C24.3567 34.7633 24.0424 35.2806 24.0424 35.301C24.0424 35.3213 26.3349 35.3465 29.1368 35.357C34.1782 35.3758 34.2332 35.3776 34.431 35.5241C34.7507 35.7608 34.8335 35.9925 34.7067 36.2961C34.5763 36.6081 34.3216 36.7254 33.4752 36.8633C32.697 36.99 30.7326 37.3049 30.1512 37.396C29.9078 37.4342 29.5094 37.4967 29.2659 37.5349C29.0225 37.573 28.3133 37.6855 27.69 37.7847C25.316 38.1628 24.5132 38.2878 23.6175 38.4191C22.3102 38.6105 22.1432 38.6446 21.9757 38.7546C21.8854 38.814 21.5284 39.321 21.1824 39.8815C20.8364 40.442 20.4816 41.0121 20.3938 41.1485C19.7644 42.126 19.1554 43.1488 19.1554 43.2283C19.1554 43.3677 20.3272 43.8852 21.5281 44.2763C22.2056 44.4969 23.2752 44.743 24.1337 44.876C25.2067 45.0421 27.5984 45.0411 28.644 44.8742C32.1334 44.3171 34.8764 43.0381 37.1046 40.9289C39.536 38.6273 41.4964 34.8003 42.1623 31.0556C42.5738 28.7425 42.6265 27.9353 42.6279 23.9374C42.6292 20.1078 42.5552 18.8021 42.1687 15.8277C41.9983 14.5163 41.8841 13.823 41.6031 12.3925C41.3569 11.1393 40.9205 9.32494 40.8152 9.11677C40.7577 9.00317 40.6004 8.9936 38.9312 9.00253C37.9295 9.00791 36.7912 9.03823 36.4016 9.06989Z" fill="#F5F6F7"/>
</svg>
