<svg width="54" height="54" viewBox="0 0 54 54" fill="none" xmlns="http://www.w3.org/2000/svg">
<circle cx="27" cy="27" r="27" fill="#974A20"/>
<path fill-rule="evenodd" clip-rule="evenodd" d="M26.6249 10.7042C26.5312 10.9277 16.3273 36.9966 16.3114 37.0535C16.2964 37.107 17.1135 37.1097 33.1478 37.1097C42.4165 37.1097 50 37.0983 50 37.0844C50 37.0704 47.7046 31.1057 44.899 23.8294L39.798 10.5997L33.2368 10.5916L26.6756 10.5835L26.6249 10.7042ZM7.98777 26.8771C5.79448 32.5492 4 37.201 4 37.2144C4.00003 37.2277 5.55757 37.2349 7.46127 37.2304L10.9225 37.2223L14.7838 26.9173C16.9075 21.2496 18.6457 16.6015 18.6466 16.5882C18.6474 16.5749 17.1467 16.5641 15.3118 16.5641H11.9755L7.98777 26.8771Z" fill="#F5F6F7"/>
</svg>
