<svg width="54" height="54" viewBox="0 0 54 54" fill="none" xmlns="http://www.w3.org/2000/svg">
<circle cx="27" cy="27" r="27" fill="#66EFF4"/>
<path fill-rule="evenodd" clip-rule="evenodd" d="M15.6065 14.4729L15.614 19.9457L20.7588 22.5036C23.5885 23.9105 25.9138 25.0621 25.9261 25.0629C25.9385 25.0636 25.9452 22.674 25.941 19.7527L25.9335 14.4411L20.8781 11.7838C18.0977 10.3222 15.7724 9.09801 15.7109 9.06324L15.5989 9L15.6065 14.4729ZM33.1747 11.7267L28.0086 14.4404L28.0075 19.7523C28.0069 22.6739 28.0132 25.0642 28.0215 25.0642C28.0439 25.0642 38.307 19.9654 38.3334 19.9412C38.3457 19.9298 38.3525 17.4663 38.3483 14.4667L38.3408 9.01293L33.1747 11.7267ZM10.4295 24.5056C7.59579 25.8835 5.28789 27.0207 5.30084 27.0327C5.33836 27.0676 15.5511 32.0155 15.5842 32.0149C15.6105 32.0143 25.7521 27.1014 25.8546 27.0395C25.8815 27.0233 24.2302 26.2061 20.9335 24.6043C18.2046 23.2784 15.8841 22.15 15.7768 22.0969L15.5816 22.0003L10.4295 24.5056ZM33.2176 24.5064C30.3834 25.8843 28.0749 27.0208 28.0877 27.032C28.1266 27.0661 38.3387 32.0145 38.3706 32.0147C38.4035 32.015 48.6163 27.067 48.6537 27.0328C48.6664 27.0211 46.3915 25.9008 43.5983 24.5433C40.8051 23.1858 38.4862 22.0585 38.4451 22.0381C38.3759 22.0038 38.0009 22.1809 33.2176 24.5064ZM20.7663 31.5204L15.5991 34.0908V39.5489C15.5991 44.6728 15.6022 45.0058 15.6498 44.9876C15.728 44.9576 25.9007 39.6052 25.9261 39.5806C25.9385 39.5687 25.9452 37.1719 25.941 34.2545L25.9335 28.95L20.7663 31.5204ZM28.0137 34.2772L28.0213 39.5863L33.1661 42.2928C35.9958 43.7814 38.321 44.9996 38.3333 45C38.3456 45.0004 38.3557 42.5456 38.3557 39.5449V34.0892L34.6499 32.248C32.6117 31.2354 30.2961 30.0831 29.504 29.6874C28.712 29.2918 28.051 28.9681 28.0351 28.9681C28.0165 28.9681 28.0089 30.8667 28.0137 34.2772Z" fill="#1B1C1C"/>
</svg>
