<svg width="54" height="54" viewBox="0 0 54 54" fill="none" xmlns="http://www.w3.org/2000/svg">
<circle cx="27" cy="27" r="27" fill="#93AAB4"/>
<path fill-rule="evenodd" clip-rule="evenodd" d="M25.0637 7.05031C23.868 7.18247 22.5331 7.43877 21.5134 7.73205C12.6448 10.2825 6.68281 18.4785 7.01306 27.6659C7.10153 30.1268 7.5045 32.0877 8.38428 34.3386C10.1044 38.7394 13.4488 42.4848 17.6049 44.6648C20.66 46.2672 23.6239 47.0016 27.03 47C31.4918 46.9979 35.5011 45.6388 39.2058 42.8727C40.1871 42.1399 42.1418 40.1842 42.8741 39.2024C45.6355 35.5004 47 31.4732 47 27.0255C47 23.6898 46.3388 20.9158 44.8339 17.9382C43.8247 15.9415 42.7514 14.4535 41.1756 12.8666C38.0927 9.76216 34.2638 7.83897 29.8045 7.1553C28.8664 7.01148 25.9913 6.9478 25.0637 7.05031ZM25.7869 14.2479C24.8372 14.3308 23.4191 14.6799 22.3709 15.0891C19.138 16.3508 16.3668 19.1719 15.1296 22.4605C14.4845 24.1754 14.1999 26.2305 14.3685 27.956C14.9315 33.7153 18.949 38.2147 24.5684 39.3795C25.7098 39.616 28.1658 39.6321 29.2822 39.4104C32.7272 38.7262 35.6811 36.7564 37.5737 33.8813C39.8042 30.4928 40.2906 26.2961 38.8924 22.5023C37.366 18.3603 33.817 15.321 29.4815 14.443C28.659 14.2764 26.6662 14.1712 25.7869 14.2479Z" fill="#F5F6F7"/>
</svg>
