<svg width="54" height="54" viewBox="0 0 54 54" fill="none" xmlns="http://www.w3.org/2000/svg">
<circle cx="27" cy="27" r="27" fill="#90469C"/>
<path fill-rule="evenodd" clip-rule="evenodd" d="M25.8075 9.01134C21.192 9.2876 17.117 10.7854 13.856 13.4044C9.31719 17.0495 7.22139 22.3625 8.26235 27.5847C8.85026 30.5341 10.5004 33.4175 12.8235 35.5547L13.2936 35.9872L13.3203 36.9527C13.3512 38.0772 13.4365 38.7267 13.6787 39.6846C14.3695 42.4158 16.008 44.4148 17.9499 44.8958C18.5086 45.0341 19.2697 45.0344 19.8304 44.8964C20.8463 44.6464 21.8959 43.902 22.6297 42.9112L22.889 42.561L23.1479 42.9067C23.8907 43.8985 24.8971 44.6145 25.9418 44.8946C26.4609 45.0336 27.3191 45.0338 27.8447 44.895C28.8761 44.6223 29.9639 43.8313 30.675 42.8369L30.8759 42.5559L31.1555 42.9265C31.5046 43.3895 32.1388 43.9968 32.573 44.2843C32.9687 44.5462 33.455 44.7639 33.9378 44.8952C34.4529 45.0353 35.3114 45.0349 35.8366 44.8944C38.0678 44.2973 39.753 41.9505 40.3171 38.6547C40.3875 38.2431 40.4186 37.8255 40.4359 37.0574L40.4593 36.0173L40.9927 35.5168C44.1845 32.5221 45.902 28.5432 45.761 24.4706C45.5909 19.5577 42.8038 15.0697 38.0752 12.0946C36.9952 11.4151 35.2036 10.5713 33.9113 10.1336C32.4059 9.62374 30.6666 9.25501 29.0088 9.09435C28.3087 9.02649 26.3869 8.97664 25.8075 9.01134ZM25.8075 17.437C25.7213 17.4469 25.4594 17.4768 25.2255 17.5035C21.841 17.8893 18.836 19.6114 17.4607 21.9534C16.6551 23.325 16.4262 24.8821 16.8129 26.36C17.2742 28.1235 18.6887 29.7864 20.6659 30.8899C22.3998 31.8576 24.3101 32.3563 26.5035 32.4137C28.7932 32.4737 30.6952 32.0794 32.5906 31.1519C34.9322 30.0059 36.4443 28.3173 36.9882 26.2412C37.1402 25.6608 37.1786 24.6199 37.0708 23.9999C36.6959 21.8431 35.1127 19.9439 32.6642 18.7138C31.5058 18.1318 30.3256 17.7699 28.8297 17.5382C28.3901 17.4701 27.9682 17.4445 27.1059 17.4336C26.478 17.4256 25.8937 17.4272 25.8075 17.437Z" fill="#F5F6F7"/>
</svg>
