<svg width="54" height="54" viewBox="0 0 54 54" fill="none" xmlns="http://www.w3.org/2000/svg">
<circle cx="27" cy="27" r="27" fill="#E77979"/>
<path fill-rule="evenodd" clip-rule="evenodd" d="M27.0886 9.00887C22.3027 9.28351 17.9323 11.1242 14.9312 14.1294C12.0826 16.9818 10.4749 20.3704 9.91584 24.7003C9.77859 25.7637 9.75972 28.4216 9.8831 29.3123C10.7315 35.4346 13.8259 39.9346 19.087 42.6971C24.334 45.452 31.5207 45.7621 37.283 43.4822C38.2872 43.0849 38.978 42.7574 39.817 42.281C40.5717 41.8526 41.925 40.9666 41.9931 40.8564C42.0156 40.8198 41.7055 40.9547 41.304 41.156C39.4608 42.08 37.4744 42.7621 35.5177 43.143C33.4073 43.5537 30.873 43.5886 28.5694 43.2388C25.9401 42.8395 23.3405 41.7661 21.4081 40.2817C17.5073 37.2856 15.4424 33.2957 15.2883 28.4571C15.2658 27.7502 15.2798 27.0526 15.3258 26.594C15.5785 24.071 16.4939 21.6702 17.9438 19.7282C18.3609 19.1695 19.422 18.0644 19.9718 17.6161C21.6882 16.2165 23.8642 15.329 26.2088 15.0723C27.0108 14.9844 28.9033 15.0367 29.6845 15.1683C32.0651 15.5691 33.8642 16.4638 35.4633 18.0419C37.4794 20.0317 38.3913 22.2872 38.2781 25.0046C38.2179 26.4505 37.9446 27.5757 37.3797 28.7027C36.4782 30.5016 34.6759 32.0515 32.7363 32.6959C31.8714 32.9831 31.2721 33.06 30.1854 33.0229C29.0589 32.9844 28.3494 32.8111 27.394 32.341C25.9487 31.6298 24.7385 30.3315 24.166 28.878C23.9225 28.2597 23.7998 27.4396 23.8427 26.7162C23.9615 24.7118 24.9898 23.0591 26.5979 22.2883C27.2976 21.9529 27.6123 21.8663 28.3065 21.818C29.6477 21.7245 31.1286 22.3026 31.889 23.2163C32.4687 23.9129 32.736 24.6505 32.7376 25.558C32.7403 26.9691 32.0612 27.9284 30.7475 28.3694C30.3244 28.5114 30.1923 28.5281 29.6547 28.5071C29.1581 28.4877 28.9786 28.4534 28.6999 28.3245C27.7856 27.9017 27.3284 27.0328 27.41 25.8727C27.4361 25.501 27.4243 25.4411 27.2991 25.3077C27.1511 25.1502 26.9438 25.1173 26.7507 25.2206C26.49 25.3601 26.3008 26.6172 26.4465 27.2411C26.6458 28.0948 27.2182 28.9496 27.9317 29.4588C28.6338 29.9598 29.3446 30.1782 30.2642 30.1753C31.6118 30.171 32.8236 29.6586 33.8104 28.6755C34.9196 27.5705 35.4842 26.0904 35.3064 24.7541C34.947 22.0532 33.3178 20.0616 30.7673 19.2053C28.3255 18.3855 24.9916 19.2024 22.9523 21.1201C21.7873 22.2157 20.9241 23.7955 20.5447 25.5267C20.368 26.3331 20.3817 28.3665 20.5702 29.2974C20.7697 30.2825 21.0173 31.0016 21.4694 31.9085C22.813 34.604 25.5313 36.6191 28.7756 37.3249C29.3383 37.4473 29.578 37.4627 30.9061 37.4616C32.283 37.4606 32.4701 37.4473 33.2471 37.2947C35.6476 36.8236 37.696 35.7543 39.7184 33.9169C40.8727 32.8682 41.7324 31.7853 42.2828 30.6868C43.886 27.4872 44.2799 24.1539 43.4558 20.7603C42.5253 16.9285 40.611 14.0756 37.5334 11.9342C35.2656 10.3562 32.583 9.39096 29.654 9.09891C28.9238 9.02615 27.5983 8.97961 27.0886 9.00887Z" fill="#F5F6F7"/>
</svg>
