<svg width="54" height="54" viewBox="0 0 54 54" fill="none" xmlns="http://www.w3.org/2000/svg">
<circle cx="27" cy="27" r="27" fill="#BC8C3A"/>
<path fill-rule="evenodd" clip-rule="evenodd" d="M40.6285 11.0836C40.619 11.1295 40.0359 14.5294 39.3327 18.6388C38.2604 24.906 38.0602 26.1202 38.0915 26.1707C38.112 26.2038 39.2224 27.7231 40.5591 29.547C42.7488 32.5349 42.9943 32.859 43.0383 32.8203C43.0651 32.7966 44.0259 32.0433 45.1733 31.1462C46.3207 30.2491 47.2561 29.5 47.2519 29.4816C47.2478 29.4631 45.9365 25.301 44.3379 20.2324L41.4315 11.0167L41.0386 11.0084L40.6457 11L40.6285 11.0836ZM17.998 13.3545C16.9679 14.5989 13.982 18.2067 11.3626 21.3717L6.6001 27.1264L6.60769 31.6539L6.61529 36.1813L10.9979 37.6187C13.4083 38.4093 15.4008 39.0582 15.4255 39.0609C15.456 39.0641 35.1223 25.4999 35.2901 25.3599C35.2943 25.3564 35.7702 22.1751 36.3475 18.2903C36.9248 14.4056 37.4024 11.1968 37.4088 11.1596L37.4204 11.0919H28.6456H19.8709L17.998 13.3545ZM27.6656 34.0709C23.0484 37.2336 19.27 39.8288 19.2692 39.838C19.2682 39.8499 27.1102 42.4366 28.7235 42.9565L28.8586 43L34.562 38.9041C37.6989 36.6514 40.2894 34.7854 40.3188 34.7574C40.3695 34.7089 40.2678 34.5508 38.2325 31.5144C37.0557 29.7588 36.0856 28.322 36.0767 28.3215C36.0678 28.3209 32.2828 30.9082 27.6656 34.0709Z" fill="#F5F6F7"/>
</svg>
