<svg width="54" height="54" viewBox="0 0 54 54" fill="none" xmlns="http://www.w3.org/2000/svg">
<circle cx="27" cy="27" r="27" fill="#496E70"/>
<path fill-rule="evenodd" clip-rule="evenodd" d="M16.9252 9.00123C16.7658 9.06995 16.5017 9.3181 16.3437 9.58163C15.3288 11.2739 6.46042 26.6891 6.42381 26.8247C6.39192 26.9427 6.39192 27.0563 6.4239 27.1744C6.46065 27.3102 15.3214 42.7118 16.3483 44.425C16.5342 44.735 16.6142 44.8241 16.7774 44.903L16.978 45H27.0976C36.9971 45 37.221 44.998 37.3936 44.9101C37.4905 44.8607 37.5927 44.7925 37.6207 44.7586C37.6485 44.7246 39.9368 40.7832 42.7056 35.9998L47.7398 27.3027L47.7399 26.9995L47.7401 26.6964L42.7059 17.9993C39.9372 13.2159 37.6489 9.27445 37.6209 9.24051C37.5928 9.20656 37.4905 9.13838 37.3936 9.08895C37.221 9.00104 36.9979 8.99908 27.0712 9.00016L16.9252 9.00123ZM26.2405 19.1669C22.7165 19.5986 19.9408 22.197 19.322 25.6434C19.1918 26.3688 19.1826 27.5146 19.3012 28.2353C19.4881 29.3708 20.011 30.6429 20.6717 31.5696C21.0784 32.1402 21.9396 32.9991 22.505 33.3984C24.353 34.703 26.6473 35.1675 28.8087 34.6745C29.3821 34.5437 29.6227 34.4664 30.1628 34.2393C32.3773 33.3079 34.1098 31.3097 34.7106 28.9941C34.8959 28.2797 34.9455 27.8587 34.9455 26.9995C34.9455 26.5456 34.9183 26.0179 34.8842 25.8104C34.3253 22.4142 31.7209 19.7926 28.3453 19.2284C27.8399 19.144 26.6997 19.1106 26.2405 19.1669Z" fill="#F5F6F7"/>
</svg>
