<svg width="54" height="54" viewBox="0 0 54 54" fill="none" xmlns="http://www.w3.org/2000/svg">
<circle cx="27" cy="27" r="27" fill="#00AFEA"/>
<path fill-rule="evenodd" clip-rule="evenodd" d="M26.91 7.0988C26.8616 7.15317 26.6861 7.41879 26.5198 7.68916C26.3537 7.95953 25.8999 8.6785 25.5115 9.28688C25.123 9.89531 24.7671 10.4544 24.7205 10.5293C24.3944 11.0536 23.8304 11.9397 23.4221 12.5694C22.7218 13.6495 21.7649 15.1471 21.5635 15.4782C21.3038 15.9055 20.5988 17.014 20.3598 17.3713C20.2101 17.595 20.0876 17.7912 20.0876 17.8073C20.0876 17.8233 19.9378 18.0644 19.7547 18.343C19.5716 18.6216 19.3874 18.9271 19.3454 19.022C19.3034 19.1169 19.2498 19.1946 19.2263 19.1946C19.2028 19.1946 19.1836 19.2184 19.1836 19.2475C19.1836 19.2766 19.0118 19.5878 18.8018 19.9391C18.5918 20.2904 18.3206 20.7683 18.1992 21.0012C18.0777 21.234 17.9229 21.5135 17.8553 21.6222C17.7876 21.7309 17.5712 22.1373 17.3744 22.5255C17.1776 22.9136 17.002 23.2439 16.9842 23.2594C16.9307 23.3062 16.5847 24.0354 16.5847 24.1014C16.5847 24.1351 16.5592 24.1627 16.5282 24.1627C16.4971 24.1627 16.4717 24.1877 16.4717 24.2182C16.4717 24.2488 16.3046 24.6235 16.1004 25.0509C15.8962 25.4784 15.6267 26.0695 15.5015 26.3645C15.3763 26.6595 15.2395 26.9771 15.1976 27.0702C15.1556 27.1634 15.0042 27.5444 14.861 27.9171C14.7179 28.2897 14.5747 28.6577 14.5426 28.735C14.3479 29.2047 14.1239 29.9917 13.8515 31.1633C13.6319 32.1079 13.5371 33.7761 13.6445 34.8051C13.8889 37.1463 14.6175 39.2115 15.8499 41.0559C16.4741 41.9902 16.5943 42.1339 17.541 43.0786C18.2974 43.8333 19.0515 44.4481 19.842 44.9543C20.2974 45.246 21.566 45.8982 21.952 46.0391C23.201 46.4951 23.8043 46.6631 24.9182 46.8655C25.8203 47.0294 27.8571 47.0469 28.8291 46.8991C30.5294 46.6405 31.7125 46.2774 33.0823 45.5938C35.2101 44.5318 37.2568 42.5919 38.5422 40.4185C39.1922 39.3194 39.5452 38.4712 40.0323 36.8372C40.0601 36.744 40.1406 36.3502 40.2113 35.9621C40.3231 35.3475 40.3399 35.0668 40.341 33.7885C40.3431 31.502 40.1457 30.5212 39.2082 28.1617C39.0396 27.7372 38.9017 27.3774 38.9017 27.3619C38.9017 27.3213 38.272 25.8532 38.0259 25.3201C37.7806 24.7884 37.0179 23.2638 36.755 22.7795C36.6539 22.5932 36.3927 22.1105 36.1747 21.7069C35.4171 20.3041 34.749 19.1537 34.1169 18.1637C33.9829 17.9538 33.8733 17.7673 33.8733 17.7494C33.8733 17.7316 33.7925 17.5984 33.6939 17.4536C33.5952 17.3089 33.4681 17.1215 33.4114 17.0374C33.3547 16.9532 33.3083 16.858 33.3083 16.8257C33.3083 16.7934 33.2858 16.7669 33.2584 16.7669C33.2309 16.7669 33.193 16.7225 33.174 16.6681C33.1551 16.6138 33.0695 16.4607 32.9838 16.3278C32.8982 16.195 32.5498 15.6488 32.2097 15.114C31.8695 14.5793 31.2831 13.6717 30.9066 13.0973C30.5301 12.5228 30.0965 11.8538 29.9431 11.6105C29.7897 11.3672 29.4799 10.8845 29.2548 10.5378C29.0298 10.1911 28.8297 9.86307 28.8104 9.8087C28.791 9.75433 28.7527 9.7099 28.7253 9.7099C28.6979 9.7099 28.6754 9.68501 28.6754 9.65452C28.6754 9.62409 28.5518 9.41447 28.4006 9.18875C28.2495 8.96304 28.0833 8.70216 28.0314 8.609C27.9794 8.51585 27.8619 8.32531 27.7703 8.18558C27.6787 8.04585 27.5857 7.89342 27.5637 7.84684C27.508 7.72925 27.0352 7 27.0147 7C27.0055 7 26.9583 7.04449 26.91 7.0988ZM19.9024 31.714C19.7432 31.8897 19.3524 32.6371 19.1194 33.2111C18.7571 34.1038 18.6542 34.6547 18.6526 35.708C18.6514 36.5293 18.666 36.6652 18.8132 37.2041C19.4558 39.5562 21.0813 41.4404 23.1771 42.2626C25.0047 42.9795 27.2551 43.035 28.9901 42.4059C30.5087 41.8553 31.986 40.6892 32.8246 39.3793C33.439 38.4195 33.7497 37.4487 33.8794 36.0827C33.95 35.3399 33.9345 35.2282 33.7614 35.2282C33.6766 35.2282 33.6104 35.307 33.5128 35.5245C33.0065 36.6524 31.7766 37.9342 30.5906 38.5702C29.3637 39.2281 27.6619 39.5385 26.2883 39.3549C23.2642 38.9505 20.8725 36.7073 20.2497 33.6908C20.2158 33.5272 20.1719 33.0016 20.152 32.5228C20.115 31.6324 20.0797 31.5182 19.9024 31.714Z" fill="#F5F6F7"/>
</svg>
